# xmcd CD database file
#
# Track frame offsets:
#	183
#	14433
#	26758
#	39383
#	50958
#	63383
#	76958
#	87833
#	101433
#	114483
#	126383
#	137883
#	151283
#	163358
#	176558
#	189083
#	200978
#	215183
#	226058
#	240083
#	253533
#	266708
#
# Disc length: 3734 seconds
#
# Revision: 0
# Processed by: cddbd v1.5PL3 Copyright (c) Steve Scherf et al.
# Submitted via: CDex 1.51
#
DISCID=380e9416
DTITLE=Blind Lemon Jefferson - The Story
DYEAR=1989
DGENRE=Blues
TTITLE0=Match Box Blues
TTITLE1=Jack O'Diamonds
TTITLE2=Bad Luck Blues
TTITLE3=Mean Jumper Blues
TTITLE4=Low Down Mojo Blues
TTITLE5=Shuckin' Sugar Blues
TTITLE6=Lonesome House Blues
TTITLE7=Hangman's Blues
TTITLE8=Corinna Blues
TTITLE9=Balky Mule Blues
TTITLE10=Teddy Bear Blues
TTITLE11=Broke And Hungry
TTITLE12=Sunshine Special
TTITLE13=Black Horse Blues
TTITLE14=Prison Cell Blues
TTITLE15=Chock House Blues
TTITLE16=Bootin' Me 'Bout
TTITLE17=Change My Luck Blues
TTITLE18=Lock Step Blues
TTITLE19=Lemon's Worried Blues
TTITLE20=Piney Woods Money Mama
TTITLE21=Easy Rider Blues
EXTD=YEAR: 1989
EXTT0=
EXTT1=
EXTT2=
EXTT3=
EXTT4=
EXTT5=
EXTT6=
EXTT7=
EXTT8=
EXTT9=
EXTT10=
EXTT11=
EXTT12=
EXTT13=
EXTT14=
EXTT15=
EXTT16=
EXTT17=
EXTT18=
EXTT19=
EXTT20=
EXTT21=
PLAYORDER=
